# xmcd CD database file
#
# Track frame offsets:
#	150
#	15673
#	33640
#	57793
#	76280
#	91175
#	104908
#	119195
#	142258
#	168290
#	189563
#	212998
#
# Disc length: 3412 seconds
#
# Revision: 6
# Processed by: cddbd v1.5.2PL0 Copyright (c) Steve Scherf et al.
# Submitted via: CDex 1.70beta2
#
DISCID=b10d520c
DTITLE=Tori Amos - Under the Pink
DYEAR=1994
DGENRE=Pop
TTITLE0=Pretty Good Year
TTITLE1=God
TTITLE2=Bells For Her
TTITLE3=Past The Mission
TTITLE4=Baker Baker
TTITLE5=The Wrong Band
TTITLE6=The Waitress
TTITLE7=Cornflake Girl
TTITLE8=Icicle
TTITLE9=Cloud On My Tongue
TTITLE10=Space Dog
TTITLE11=Yes, Anastasia
EXTD=YEAR: 1994
EXTT0=
EXTT1=
EXTT2=
EXTT3=
EXTT4=
EXTT5=
EXTT6=
EXTT7=
EXTT8=
EXTT9=
EXTT10=
EXTT11=
PLAYORDER=
